<?xml version="1.0" encoding="iso-8859-1"?>
<!-- Generator: Adobe Illustrator 17.1.0, SVG Export Plug-In . SVG Version: 6.00 Build 0)  -->
<!DOCTYPE svg PUBLIC "-//W3C//DTD SVG 1.1//EN" "http://www.w3.org/Graphics/SVG/1.1/DTD/svg11.dtd">
<svg version="1.1" id="Layer_1" xmlns="http://www.w3.org/2000/svg" xmlns:xlink="http://www.w3.org/1999/xlink" x="0px" y="0px"
	 viewBox="2.5 2.5 32 32" style="enable-background:new 2.5 2.5 32 32;" xml:space="preserve">
<path d="M34.5,20.5v-3.984h-3.645c-0.326-1.769-1.017-3.71-2-5.138l2.576-2.575l-3.234-3.232l-2.575,2.575
	c-1.429-0.983-3.353-1.674-5.122-2V2.5h-3.984L16.5,6c-1.769,0.326-3.695,1.163-5.122,2.146L8.803,5.571L5.571,8.803l2.575,2.575
	c-0.984,1.427-1.674,3.353-2,5.122H2.5v4h3.646c0.326,1.769,1.016,3.694,2,5.122l-2.575,2.574l3.232,3.232l2.575-2.574
	c1.427,0.981,3.353,1.674,5.122,1.998V34.5h4v-3.647c1.769-0.323,3.694-1.016,5.122-1.998l2.574,2.574l3.232-3.232l-2.574-2.574
	c0.981-1.429,1.674-3.354,2-5.121L34.5,20.5L34.5,20.5z M18.5,25.357c-3.786,0-6.857-3.072-6.857-6.857
	c0-3.786,3.071-6.857,6.857-6.857c3.785,0,6.857,3.071,6.857,6.857C25.357,22.285,22.287,25.357,18.5,25.357z"/>
</svg>
