<?xml version="1.0" encoding="iso-8859-1"?>
<!-- Generator: Adobe Illustrator 17.1.0, SVG Export Plug-In . SVG Version: 6.00 Build 0)  -->
<!DOCTYPE svg PUBLIC "-//W3C//DTD SVG 1.1//EN" "http://www.w3.org/Graphics/SVG/1.1/DTD/svg11.dtd">
<svg version="1.1" id="Layer_1" xmlns="http://www.w3.org/2000/svg" xmlns:xlink="http://www.w3.org/1999/xlink" x="0px" y="0px"
	 viewBox="1.5 2.5 32 32" style="enable-background:new 1.5 2.5 32 32;" xml:space="preserve">
<g>
	<path d="M33.5,16.415V2.5l-4.745,4.997C25.97,4.794,22.185,3.117,18,3.117c-8.562,0-15.5,6.941-15.5,15.5
		c0,8.562,6.938,15.5,15.5,15.5c5.941,0,11.097-3.347,13.697-8.253l-4.104-2.659c-1.715,3.581-5.361,6.061-9.594,6.061
		c-5.881,0-10.645-4.77-10.645-10.646c0-5.879,4.764-10.646,10.645-10.646c2.893,0,5.493,1.217,7.411,3.091L20.29,16.5H33.5V16.415z
		"/>
</g>
</svg>
