<?xml version="1.0" encoding="iso-8859-1"?>
<!-- Generator: Adobe Illustrator 17.1.0, SVG Export Plug-In . SVG Version: 6.00 Build 0)  -->
<!DOCTYPE svg PUBLIC "-//W3C//DTD SVG 1.1//EN" "http://www.w3.org/Graphics/SVG/1.1/DTD/svg11.dtd">
<svg version="1.1" id="Layer_1" xmlns="http://www.w3.org/2000/svg" xmlns:xlink="http://www.w3.org/1999/xlink" x="0px" y="0px"
	 viewBox="-0.5 0.5 32 32" style="enable-background:new -0.5 0.5 32 32;" xml:space="preserve">
<g>
	<rect x="5.5" y="0.5" width="20" height="4"/>
	<path d="M29.5,6.5h-28c-1.262,0-2,0.862-2,2.125l0.071,15.724c0,1.262,0.667,3.151,1.929,3.151h3v-15h22v15h2
		c2.212,0,2.572-1.654,3-3.059V8.667C31.072,7.547,30.76,6.5,29.5,6.5z"/>
	<path d="M6.5,14.5l0.084,18h17.833l0.083-18H6.5z M21.5,28.5h-12v-2h12V28.5z M21.5,24.5h-12v-2h12V24.5z M21.5,20.5h-12v-2h12
		V20.5z"/>
</g>
</svg>
