<?xml version="1.0" encoding="iso-8859-1"?>
<!-- Generator: Adobe Illustrator 17.1.0, SVG Export Plug-In . SVG Version: 6.00 Build 0)  -->
<!DOCTYPE svg PUBLIC "-//W3C//DTD SVG 1.1//EN" "http://www.w3.org/Graphics/SVG/1.1/DTD/svg11.dtd">
<svg version="1.1" id="Layer_1" xmlns="http://www.w3.org/2000/svg" xmlns:xlink="http://www.w3.org/1999/xlink" x="0px" y="0px"
	 viewBox="1.5 2.5 32 32" style="enable-background:new 1.5 2.5 32 32;" xml:space="preserve">
<path d="M17.5,2.5c-8.836,0-16,7.164-16,16c0,8.837,7.164,16,16,16c8.837,0,16-7.163,16-16C33.5,9.664,26.337,2.5,17.5,2.5z
	 M19.5,29.5h-4v-4h4V29.5z M24.134,15.968c-0.25,0.583-0.55,1.05-0.916,1.432c-0.352,0.4-0.769,0.734-1.185,1l-1.25,0.833
	c-0.399,0.251-0.6,0.568-0.883,0.935c-0.299,0.366-0.4,0.801-0.4,1.333v1h-4v-1.183c0-0.767,0.258-1.418,0.509-1.934
	c0.232-0.518,0.571-0.967,0.871-1.333c0.315-0.352,0.668-0.667,1.034-0.935c0.368-0.25,0.693-0.518,1.01-0.783
	c0.283-0.251,0.521-0.566,0.722-0.884c0.184-0.315,0.27-0.732,0.27-1.217c0-0.815-0.231-1.416-0.648-1.798
	c-0.451-0.4-1.049-0.601-1.8-0.601c-0.518,0-0.983,0.101-1.351,0.283c-0.366,0.216-0.683,0.451-0.916,0.75
	c-0.249,0.316-0.433,0.784-0.55,1.201C14.551,14.483,14.5,14.5,14.5,15.5h-3.333c0-1,0.184-1.933,0.499-2.733
	c0.301-0.799,0.751-1.583,1.317-2.216c0.584-0.617,1.25-1.142,2.067-1.508c0.801-0.334,1.717-0.53,2.7-0.53
	c1.283,0,2.35,0.194,3.216,0.56c0.85,0.366,1.55,0.83,2.083,1.38c0.518,0.55,0.884,1.115,1.117,1.716
	c0.2,0.633,0.333,1.183,0.333,1.699C24.5,14.718,24.367,15.434,24.134,15.968z"/>
</svg>
