<?xml version="1.0" encoding="iso-8859-1"?>
<!-- Generator: Adobe Illustrator 17.1.0, SVG Export Plug-In . SVG Version: 6.00 Build 0)  -->
<!DOCTYPE svg PUBLIC "-//W3C//DTD SVG 1.1//EN" "http://www.w3.org/Graphics/SVG/1.1/DTD/svg11.dtd">
<svg version="1.1" id="Layer_1" xmlns="http://www.w3.org/2000/svg" xmlns:xlink="http://www.w3.org/1999/xlink" x="0px" y="0px"
	 viewBox="2.5 2.5 32 32" style="enable-background:new 2.5 2.5 32 32;" xml:space="preserve">
<style type="text/css">
	.st0{fill:#FFFFFF;}
</style>
<g>
	<path d="M2.5,6.5v26h32v-26H2.5z M26.75,23H24.5v-3h2.25l-1.25,1.5L26.75,23z M22.5,30.5h-10v-18h10V30.5z M4.5,12.5h6V15h-4v1h4v3
		h-4v1h4v3h-4v1h4v3h-4v1h4v2.5h-6V12.5z M32.5,30.5h-8V28h4v-1h-4v-3h3.083l2.917,3.5v-12L27.583,19H24.5v-3h4v-1h-4v-2.5h8V30.5z"
		/>
	<polygon class="st0" points="24.5,20 24.5,23 26.75,23 25.5,21.5 26.75,20 	"/>
	<rect x="14.5" y="26.5" width="6" height="2"/>
	<rect x="14.5" y="22.5" width="6" height="2"/>
	<rect x="14.5" y="18.5" width="6" height="2"/>
	<rect x="14.5" y="14.5" width="6" height="2"/>
</g>
</svg>
